{
    "asset" : {
        "generator" : "Khronos glTF Blender I/O v1.0.5",
        "version" : "2.0"
    },
    "scene" : 0,
    "scenes" : [
        {
            "name" : "Scene",
            "nodes" : [
                0,
                1
            ]
        }
    ],
    "nodes" : [
        {
            "mesh" : 0,
            "name" : "Roundcube"
        },
        {
            "name" : "Camera",
            "rotation" : [
                0.707099437713623,
                -0.0032404838129878044,
                0.0032404842786490917,
                0.7070993185043335
            ],
            "translation" : [
                0,
                1.346616268157959,
                10.594650268554688
            ]
        }
    ],
    "animations" : [
        {
            "channels" : [
                {
                    "sampler" : 0,
                    "target" : {
                        "node" : 0,
                        "path" : "weights"
                    }
                }
            ],
            "name" : "KeyAction",
            "samplers" : [
                {
                    "input" : 6,
                    "interpolation" : "LINEAR",
                    "output" : 7
                }
            ]
        }
    ],
    "materials" : [
        {
            "doubleSided" : true,
            "emissiveFactor" : [
                1,
                1,
                1
            ],
            "emissiveTexture" : {
                "index" : 0,
                "texCoord" : 0
            },
            "name" : "Frog",
            "pbrMetallicRoughness" : {}
        }
    ],
    "meshes" : [
        {
            "extras" : {
                "targetNames" : [
                    "Croak"
                ]
            },
            "name" : "Roundcube",
            "primitives" : [
                {
                    "attributes" : {
                        "POSITION" : 0,
                        "NORMAL" : 1,
                        "TEXCOORD_0" : 2
                    },
                    "indices" : 3,
                    "material" : 0,
                    "targets" : [
                        {
                            "POSITION" : 4,
                            "NORMAL" : 5
                        }
                    ]
                }
            ],
            "weights" : [
                0
            ]
        }
    ],
    "textures" : [
        {
            "source" : 0
        }
    ],
    "images" : [
        {
            "mimeType" : "image/png",
            "name" : "Color Palette",
            "uri" : "Color Palette.png"
        }
    ],
    "accessors" : [
        {
            "bufferView" : 0,
            "componentType" : 5126,
            "count" : 1360,
            "max" : [
                1.7551910877227783,
                2.982393264770508,
                2.134082555770874
            ],
            "min" : [
                -1.5918052196502686,
                -0.027537405490875244,
                -1.1615045070648193
            ],
            "type" : "VEC3"
        },
        {
            "bufferView" : 1,
            "componentType" : 5126,
            "count" : 1360,
            "type" : "VEC3"
        },
        {
            "bufferView" : 2,
            "componentType" : 5126,
            "count" : 1360,
            "type" : "VEC2"
        },
        {
            "bufferView" : 3,
            "componentType" : 5123,
            "count" : 6696,
            "type" : "SCALAR"
        },
        {
            "bufferView" : 4,
            "componentType" : 5126,
            "count" : 1360,
            "max" : [
                0.6769368648529053,
                0.44495391845703125,
                0.27199018001556396
            ],
            "min" : [
                -0.7205511927604675,
                -0.1653459668159485,
                -0.5962003469467163
            ],
            "type" : "VEC3"
        },
        {
            "bufferView" : 5,
            "componentType" : 5126,
            "count" : 1360,
            "type" : "VEC3"
        },
        {
            "bufferView" : 6,
            "componentType" : 5126,
            "count" : 50,
            "max" : [
                2.0833333333333335
            ],
            "min" : [
                0.041666666666666664
            ],
            "type" : "SCALAR"
        },
        {
            "bufferView" : 7,
            "componentType" : 5126,
            "count" : 50,
            "type" : "SCALAR"
        }
    ],
    "bufferViews" : [
        {
            "buffer" : 0,
            "byteLength" : 16320,
            "byteOffset" : 0
        },
        {
            "buffer" : 0,
            "byteLength" : 16320,
            "byteOffset" : 16320
        },
        {
            "buffer" : 0,
            "byteLength" : 10880,
            "byteOffset" : 32640
        },
        {
            "buffer" : 0,
            "byteLength" : 13392,
            "byteOffset" : 43520
        },
        {
            "buffer" : 0,
            "byteLength" : 16320,
            "byteOffset" : 56912
        },
        {
            "buffer" : 0,
            "byteLength" : 16320,
            "byteOffset" : 73232
        },
        {
            "buffer" : 0,
            "byteLength" : 200,
            "byteOffset" : 89552
        },
        {
            "buffer" : 0,
            "byteLength" : 200,
            "byteOffset" : 89752
        }
    ],
    "buffers" : [
        {
            "byteLength" : 89952,
            "uri" : "phrog.bin"
        }
    ]
}
